<svg width="60" height="60" viewBox="0 0 60 60" fill="none" xmlns="http://www.w3.org/2000/svg">
<path d="M55.9974 38.2571V38.214C55.9939 38.0125 55.9869 37.8115 55.979 37.6076C55.9756 37.5917 55.9756 37.5759 55.9756 37.5601C55.9651 37.3591 55.9541 37.1614 55.9362 36.9604C55.9362 36.9506 55.9353 36.9407 55.9345 36.9309C55.9336 36.9211 55.9327 36.9112 55.9327 36.9014L55.9304 36.8763C55.9132 36.691 55.8958 36.5025 55.8715 36.3175C55.8715 36.2965 55.8688 36.2787 55.8658 36.2588L55.8645 36.2504C55.8427 36.057 55.8178 35.868 55.7889 35.6785L55.787 35.6653C55.7839 35.6433 55.7809 35.6231 55.778 35.5998C55.7492 35.4147 55.7168 35.229 55.6845 35.0438C55.6775 35.016 55.6701 34.9848 55.6666 34.957C55.6307 34.7752 55.5945 34.5938 55.5551 34.4125L55.5498 34.3887L55.5415 34.3512C55.5389 34.3391 55.5363 34.3266 55.5337 34.3136C55.4939 34.14 55.4511 33.9625 55.4078 33.7888C55.4056 33.7815 55.4035 33.7741 55.4015 33.7665C55.3987 33.7557 55.3961 33.7447 55.3934 33.7337C55.3889 33.715 55.3845 33.6962 55.379 33.6785C55.3357 33.5086 55.289 33.3393 55.2387 33.1695C55.2282 33.1296 55.2173 33.0903 55.2029 33.051C55.173 32.9449 55.1403 32.8406 55.1074 32.736C55.0889 32.677 55.0702 32.6174 55.0521 32.5578C55.0349 32.5164 55.0209 32.4745 55.0071 32.4331L55.0053 32.4278C54.9516 32.2699 54.8978 32.1121 54.8401 31.9543L54.7864 31.8123C54.7425 31.6898 54.6938 31.5677 54.6441 31.4433L54.6102 31.3584L54.5995 31.3336C54.5814 31.2919 54.564 31.2516 54.549 31.2087C54.5081 31.1109 54.4656 31.0132 54.4237 30.9168C54.403 30.8691 54.3822 30.8215 54.362 30.7746L54.3494 30.7471L54.349 30.7462C54.3281 30.7006 54.3074 30.6554 54.2864 30.6129C54.2217 30.4714 54.157 30.3332 54.0888 30.195C54.0691 30.1509 54.0446 30.1046 54.021 30.0598L54.0028 30.0252C53.9575 29.9308 53.91 29.8384 53.862 29.745L53.8284 29.6794L53.8017 29.627L53.7842 29.5955L53.7643 29.5606L53.7514 29.5383C53.7344 29.5086 53.7174 29.479 53.7012 29.4495C53.633 29.3233 53.5648 29.1972 53.4892 29.0748C53.4534 29.0115 53.4171 28.9487 53.3778 28.8853L53.3207 28.7904L53.2701 28.706C53.2341 28.6459 53.1982 28.5858 53.1623 28.5265C53.1297 28.4787 53.0993 28.4312 53.0677 28.3819L53.0364 28.3331C52.9901 28.2655 52.9453 28.1963 52.9001 28.1266C52.8716 28.0825 52.8428 28.0381 52.8136 27.994C52.7965 27.9695 52.7795 27.9456 52.7625 27.9219L52.7203 27.8632C52.7046 27.8413 52.6889 27.8193 52.6733 27.7968C52.5981 27.6903 52.5225 27.5838 52.4434 27.4773C52.4119 27.4331 52.3792 27.3907 52.3469 27.3487C52.3273 27.3233 52.3076 27.2977 52.2887 27.2724C52.217 27.1751 52.1422 27.0817 52.0672 26.9881L52.0549 26.9726C52.0011 26.9016 51.9438 26.8306 51.8862 26.7634C51.8589 26.7308 51.8321 26.6982 51.8052 26.6656C51.7541 26.6035 51.703 26.5413 51.6488 26.4794C51.5877 26.4084 51.5265 26.3412 51.4618 26.2702C51.4388 26.2438 51.4157 26.2178 51.3927 26.1918L51.3431 26.1362C51.3036 26.0918 51.264 26.0474 51.2245 26.0021C51.1904 25.9666 51.1562 25.932 51.122 25.8975C51.0878 25.8629 51.0536 25.8284 51.0195 25.7929C51.0002 25.7726 50.9809 25.7521 50.9615 25.7316L50.9606 25.7306C50.901 25.6673 50.8408 25.6036 50.7787 25.5444C50.7071 25.4734 50.6353 25.4023 50.5597 25.3314C50.5181 25.292 50.4765 25.2514 50.4343 25.2103C50.3964 25.1733 50.3581 25.136 50.3189 25.0987C50.2794 25.0632 50.2398 25.0286 50.2002 24.9941C50.1607 24.9596 50.1212 24.925 50.0816 24.8895C50.0493 24.8617 50.0175 24.8333 49.9858 24.8051C49.9366 24.7611 49.8875 24.7174 49.8373 24.6765C49.7782 24.6246 49.7206 24.5777 49.6624 24.5303C49.6324 24.5059 49.6022 24.4813 49.5716 24.4558C49.496 24.3968 49.374 24.2985 49.2984 24.2352C49.2589 24.2057 49.2185 24.1751 49.1781 24.1445C49.1376 24.1139 49.0972 24.0833 49.0576 24.0538L49.0057 24.0144C48.9453 23.9684 48.8858 23.9231 48.8242 23.8802C48.7271 23.8103 48.6296 23.7438 48.5325 23.6775L48.5118 23.6633C48.474 23.6376 48.4371 23.612 48.4003 23.5863C48.3635 23.5606 48.3267 23.535 48.2889 23.5093C48.2244 23.4683 48.1587 23.4274 48.0931 23.3866C48.0383 23.3525 47.9836 23.3184 47.9296 23.2843C47.8973 23.2646 47.8658 23.2439 47.8343 23.2231C47.8029 23.2024 47.7714 23.1816 47.7391 23.162C47.552 23.0516 47.3619 22.9413 47.1714 22.8348C43.7074 20.9417 39.9165 20.5589 36.4236 21.4584H36.4201C30.1967 22.4764 22.9632 18.721 22.9632 11.6841C22.9632 9.62885 23.6135 6.78876 25.6152 4C22.2735 6.49659 20.0743 10.7054 20.0743 15.4784C20.0743 20.7877 22.7949 25.3952 26.7834 27.7301C26.8913 27.7934 26.9953 27.8524 27.1068 27.9076C27.1177 27.9153 27.1282 27.9234 27.1426 27.9273C27.1929 27.9589 27.2436 27.9863 27.2973 28.0141C26.7331 28.8422 26.2266 29.7335 25.7917 30.6882C25.6514 30.9957 25.5221 31.3076 25.4036 31.6151C25.377 31.6819 25.3524 31.7476 25.3281 31.8123C25.3066 31.8696 25.2853 31.9264 25.2633 31.9821C25.2205 32.0924 25.1772 32.2109 25.1414 32.3251C25.1124 32.4232 25.0805 32.5182 25.0486 32.6133C25.0177 32.7056 24.9867 32.7979 24.9583 32.8931C24.8901 33.1143 24.8254 33.3388 24.7642 33.5638C24.7389 33.6583 24.714 33.7528 24.6886 33.8517C24.6668 33.9308 24.6454 34.0138 24.6274 34.0925C18.8096 32.9051 12.5896 34.9915 8.38175 40.2064C5.23068 44.1115 3.79675 49.0341 4.02313 53.8623C4.18999 53.5361 4.34662 53.0996 4.53397 52.5774C5.0125 51.2438 5.69152 49.3514 7.25374 47.3104C9.72259 44.0918 12.583 42.4823 15.5186 42.1037C19.9424 41.5281 24.2577 43.9143 26.6798 48.0166C27.8117 49.9375 29.2994 51.6301 31.0961 52.9671C31.0961 52.9677 31.0962 52.9682 31.0963 52.9686C31.0964 52.969 31.0966 52.9693 31.0968 52.9696L31.0978 52.9709C31.0987 52.9719 31.0996 52.9729 31.0996 52.9748C31.1228 52.9925 31.1476 53.0088 31.1729 53.0256L31.1905 53.0372L31.2145 53.0534C31.4265 53.207 31.642 53.3571 31.8649 53.503L31.9116 53.5341L31.9708 53.574C32.0059 53.5976 32.041 53.6212 32.0768 53.645C32.3609 53.8225 32.6485 53.9962 32.9465 54.1578C39.1669 57.5621 46.4398 56.0869 51.1615 51.0615C47.9384 53.5346 43.6156 54.0475 39.8461 51.9846C39.6088 51.8546 39.3789 51.7126 39.1525 51.5667C39.1204 51.5466 39.0884 51.525 39.0556 51.5028L39.0331 51.4876L38.9978 51.464C38.7784 51.3182 38.5664 51.1642 38.358 51.0025C38.3403 50.9902 38.3241 50.9766 38.3084 50.9633C38.2984 50.955 38.2887 50.9468 38.2789 50.9392C38.0918 50.7895 37.9087 50.6355 37.7326 50.4739C37.7109 50.4561 37.6903 50.4374 37.6696 50.4187C37.649 50.4 37.6283 50.3813 37.6067 50.3635C37.4201 50.186 37.233 50.0008 37.0569 49.8113C37.0329 49.7876 37.0105 49.7621 36.9886 49.7372L36.9764 49.7234L36.9564 49.701C36.7982 49.5273 36.6474 49.3498 36.5001 49.1685C36.4713 49.1368 36.4429 49.1013 36.4175 49.0658C36.2558 48.8648 36.1011 48.6556 35.9538 48.4388L35.8568 48.2968C35.7204 48.0881 35.5876 47.8789 35.4617 47.6659C35.4508 47.6462 35.4403 47.6304 35.4294 47.6146C35.2965 47.3857 35.1741 47.1488 35.0592 46.9122C35.0303 46.8571 35.0054 46.8057 34.9801 46.7506C34.8651 46.5102 34.7572 46.2694 34.6567 46.0209L34.6546 46.0161C34.6482 46.0019 34.6419 45.9876 34.6388 45.9734C34.5452 45.7369 34.4591 45.5003 34.38 45.2595L34.3728 45.2379L34.3613 45.2043C34.3486 45.1676 34.3359 45.1308 34.3263 45.094C34.2437 44.8417 34.1716 44.585 34.1069 44.3288C34.1028 44.3141 34.0993 44.2994 34.0959 44.2845C34.092 44.2673 34.0882 44.2498 34.0841 44.2316L34.078 44.2065C34.0208 43.9738 33.9705 43.7368 33.9273 43.5003C33.9218 43.4765 33.9173 43.4519 33.9128 43.4274C33.9084 43.4028 33.9039 43.3782 33.8984 43.3544C33.8551 43.0901 33.8158 42.8258 33.787 42.5614C33.7795 42.5063 33.776 42.4549 33.7725 42.3997C33.7476 42.1551 33.7297 41.9066 33.7188 41.6581C33.717 41.6418 33.7161 41.6255 33.7152 41.6086L33.7146 41.5973C33.7139 41.585 33.7131 41.5724 33.7118 41.5592C33.7013 41.2877 33.7048 41.0205 33.7083 40.7495L33.7083 40.7465C33.71 40.717 33.7109 40.6874 33.7118 40.6578C33.7127 40.6282 33.7135 40.5985 33.7153 40.569C33.7258 40.2927 33.7437 40.0169 33.769 39.7405C33.9093 38.356 34.2721 36.9753 34.8686 35.6579C36.4424 32.1908 39.3208 29.911 42.526 29.1732L42.5607 29.1659C42.6252 29.1524 42.6919 29.1385 42.7559 29.1218C45.0486 28.6483 47.4921 28.964 49.7416 30.1946C53.5111 32.2575 55.7387 36.3516 55.879 40.6669C55.8969 40.5096 55.9113 40.3556 55.9257 40.1977V40.1939C55.9437 39.9809 55.9581 39.7722 55.9725 39.563V39.5314C55.983 39.3222 55.9904 39.1173 55.9939 38.9082C55.9939 38.8962 55.9974 38.8847 55.9974 38.8727C56.0009 38.6673 56.0009 38.4625 55.9974 38.2571Z" fill="#8985E9"/>
<path d="M40.8951 17.4342C39.8014 18.9014 38.0579 19.856 36.0872 19.856C32.7733 19.856 30.0875 17.1695 30.0869 13.8565C30.0869 10.7246 32.4874 8.15609 35.5482 7.8833L35.5497 7.88127C35.7274 7.86558 35.906 7.85596 36.0872 7.85596C39.4011 7.85596 42.0869 10.5424 42.0869 13.8565C42.0869 14.0463 42.0758 14.234 42.0586 14.4198C42.0553 14.4583 42.0501 14.4966 42.045 14.535C42.0424 14.5546 42.0397 14.5743 42.0374 14.5939C42.0217 14.7214 42.0034 14.8474 41.9797 14.9724C41.9675 15.0372 41.9538 15.1015 41.9397 15.1658C41.9129 15.2857 41.882 15.4042 41.8481 15.5216L41.8321 15.5774C41.8207 15.6179 41.8093 15.6583 41.7965 15.6982C41.7509 15.8394 41.6998 15.9776 41.6441 16.1142C41.6387 16.1275 41.6338 16.1408 41.629 16.1541C41.6229 16.1708 41.6167 16.1875 41.6097 16.2038C41.5404 16.3673 41.4629 16.5257 41.3799 16.6811C41.364 16.7108 41.3469 16.7397 41.3298 16.7686C41.3193 16.7864 41.3087 16.8043 41.2985 16.8223C41.2372 16.9296 41.174 17.0354 41.1061 17.1386C41.0746 17.1866 41.0419 17.2333 41.0091 17.2803L40.9953 17.3001C40.9828 17.3178 40.9708 17.3359 40.9587 17.3541C40.9409 17.3809 40.923 17.4077 40.9037 17.4337C40.9018 17.434 40.9001 17.4341 40.8983 17.4342L40.8951 17.4342Z" fill="#8985E9"/>
<path d="M48.7411 33.3738C44.6889 32.0272 40.7696 34.1931 39.9863 38.2117C44.0385 39.5583 47.9582 37.3922 48.7411 33.3738Z" fill="#8985E9"/>
<path d="M7.53865 30.2825C10.2552 33.287 14.0888 33.2233 16.102 30.1405C13.3855 27.136 9.55139 27.1997 7.53865 30.2825Z" fill="#8985E9"/>
<path d="M53.4098 45.442C48.2938 49.9178 40.6827 49.0524 36.4105 43.5094C41.5268 39.0334 49.1376 39.8983 53.4098 45.442Z" fill="#8985E9"/>
<path d="M11.6571 15.9326C17.151 17.7213 20.4491 23.4649 19.0235 28.7605C13.5292 26.9717 10.231 21.2286 11.6571 15.9326Z" fill="#8985E9"/>
</svg>
